<svg width="633" height="396" viewBox="0 0 633 396" fill="none" xmlns="http://www.w3.org/2000/svg">
<g clip-path="url(#clip0_4_70)">
<path d="M547.093 264.254C546.45 263.206 546.045 262.029 545.905 260.807C545.766 259.585 545.896 258.348 546.287 257.182C546.678 256.016 547.319 254.949 548.166 254.058C549.013 253.167 550.045 252.472 551.19 252.023L550.001 222.152L563.295 230.182L562.385 257.317C563.012 259.29 562.893 261.425 562.052 263.317C561.21 265.208 559.704 266.725 557.819 267.58C555.934 268.436 553.801 268.569 551.824 267.956C549.847 267.343 548.164 266.026 547.093 264.254Z" fill="#A0616A"/>
<path d="M564.836 244.889L553.018 246.778C552.521 246.858 552.014 246.837 551.526 246.717C551.038 246.597 550.579 246.38 550.176 246.08C549.773 245.78 549.435 245.402 549.18 244.968C548.925 244.535 548.76 244.055 548.694 243.557L543.694 205.886L518.987 172.062C518.073 170.809 517.424 169.382 517.082 167.869C516.739 166.356 516.71 164.789 516.996 163.264C517.282 161.739 517.878 160.289 518.746 159.004C519.613 157.718 520.735 156.624 522.042 155.788C524.58 154.166 527.657 153.619 530.598 154.266C533.539 154.914 536.102 156.705 537.724 159.243L562.957 198.745L567.979 240.725C568.011 240.993 568.015 241.263 567.99 241.532C567.912 242.363 567.56 243.144 566.988 243.752C566.417 244.36 565.66 244.76 564.836 244.889Z" fill="#BA76FF"/>
<path d="M524.092 384.709H513.84L508.963 345.149L524.094 345.15L524.092 384.709Z" fill="#A0616A"/>
<path d="M506.517 381.778H526.289V394.232H494.068C494.068 390.929 495.379 387.761 497.714 385.426C500.049 383.09 503.215 381.778 506.517 381.778Z" fill="#2F2E41"/>
<path d="M567.347 367.154L559.687 373.97L531.133 345.806L541.064 337.596L567.347 367.154Z" fill="#A0616A"/>
<path d="M552.269 376.65L567.041 363.504L575.316 372.809L551.241 394.233C550.155 393.011 549.319 391.587 548.783 390.042C548.246 388.497 548.019 386.861 548.115 385.229C548.21 383.596 548.626 381.998 549.339 380.526C550.052 379.054 551.047 377.737 552.269 376.65Z" fill="#2F2E41"/>
<path d="M421.066 158.495C422.263 158.215 423.507 158.202 424.71 158.456C425.913 158.71 427.045 159.225 428.028 159.964C429.01 160.703 429.819 161.648 430.397 162.734C430.975 163.82 431.307 165.019 431.372 166.247L460.078 174.554L448.263 184.636L422.815 175.201C420.745 175.173 418.758 174.386 417.23 172.989C415.701 171.593 414.738 169.684 414.523 167.625C414.307 165.566 414.854 163.499 416.06 161.816C417.266 160.133 419.047 158.951 421.066 158.495Z" fill="#A0616A"/>
<path d="M510.563 129.827C521.907 129.827 531.102 120.627 531.102 109.28C531.102 97.9318 521.907 88.7325 510.563 88.7325C499.22 88.7325 490.024 97.9318 490.024 109.28C490.024 120.627 499.22 129.827 510.563 129.827Z" fill="#A0616A"/>
<path d="M525.35 377.301L511.081 376.159C510.159 376.086 509.297 375.675 508.658 375.006C508.02 374.337 507.65 373.456 507.62 372.531L503.637 252.204C503.605 251.275 503.918 250.366 504.517 249.654C505.116 248.942 505.957 248.478 506.878 248.352L535.327 244.38C535.913 244.298 536.51 244.356 537.07 244.548C537.63 244.741 538.136 245.062 538.548 245.487C538.96 245.912 539.266 246.429 539.442 246.994C539.617 247.56 539.656 248.158 539.557 248.742L528.67 312.53C528.64 312.705 528.626 312.883 528.629 313.061L529.413 373.499C529.42 373.998 529.327 374.493 529.141 374.955C528.955 375.418 528.678 375.839 528.328 376.194C527.978 376.549 527.56 376.83 527.1 377.023C526.64 377.215 526.147 377.314 525.648 377.314C525.549 377.314 525.45 377.309 525.35 377.301Z" fill="#2F2E41"/>
<path d="M543.626 362.87L494.606 308.293C494.254 307.9 493.988 307.438 493.825 306.936C493.663 306.434 493.608 305.903 493.663 305.378L499.854 247.316C499.956 246.348 500.429 245.457 501.173 244.831C501.918 244.205 502.876 243.893 503.846 243.959L533.931 245.965C534.506 246.004 535.064 246.174 535.563 246.462C536.062 246.751 536.489 247.15 536.809 247.63C537.129 248.109 537.335 248.656 537.411 249.227C537.486 249.799 537.43 250.38 537.245 250.927L519.22 304.273C519.047 304.781 519.017 305.328 519.135 305.852C519.253 306.376 519.513 306.858 519.886 307.243L561.525 350.413C561.92 350.823 562.217 351.316 562.393 351.856C562.57 352.396 562.622 352.97 562.546 353.533C562.47 354.097 562.267 354.635 561.952 355.109C561.638 355.583 561.221 355.979 560.731 356.269L548.339 363.594C547.59 364.035 546.712 364.204 545.853 364.072C544.995 363.94 544.208 363.515 543.626 362.87Z" fill="#2F2E41"/>
<path d="M506.883 142.518C506.883 142.518 519.426 131.643 525.28 137.499C525.28 137.499 552.458 154.649 540.75 201.497C540.75 201.497 550.785 246.672 546.604 248.345C542.423 250.018 500.193 256.292 496.848 251.273C493.503 246.253 491.83 169.289 506.883 142.518Z" fill="#BA76FF"/>
<path d="M433.827 181.452L435.769 169.638C435.85 169.142 436.03 168.668 436.298 168.242C436.566 167.817 436.916 167.45 437.328 167.162C437.741 166.874 438.206 166.672 438.698 166.567C439.189 166.463 439.696 166.457 440.19 166.552L477.497 173.705L517.381 160.939C518.858 160.466 520.416 160.301 521.959 160.454C523.502 160.607 524.998 161.074 526.354 161.828C527.709 162.581 528.897 163.604 529.842 164.834C530.787 166.064 531.471 167.474 531.85 168.978C532.587 171.9 532.134 174.993 530.591 177.58C529.047 180.167 526.54 182.035 523.62 182.772L478.185 194.245L436.784 185.751C436.52 185.697 436.262 185.615 436.015 185.507C435.252 185.171 434.622 184.589 434.226 183.855C433.83 183.121 433.689 182.275 433.827 181.452Z" fill="#BA76FF"/>
<path d="M519.377 125.946C521.254 121.601 522.842 115.813 519.242 112.741C517.154 110.959 514.146 110.955 511.41 110.733C503.703 110.109 495.768 106.561 492.001 99.8049C488.233 93.0488 490.337 83.0028 497.445 79.9547C502.236 77.9001 507.728 79.2997 512.743 80.7224L527.8 84.9939C532.274 86.263 536.972 87.6627 540.193 91.0184C545.329 96.3702 544.945 105.417 540.865 111.613C536.785 117.809 530.641 124.271 523.607 126.624L519.377 125.946Z" fill="#2F2E41"/>
<path d="M632.164 396H424.776C424.555 396 424.342 395.912 424.185 395.755C424.028 395.598 423.94 395.385 423.94 395.163C423.94 394.942 424.028 394.729 424.185 394.572C424.342 394.415 424.555 394.327 424.776 394.327H632.164C632.386 394.327 632.598 394.415 632.755 394.572C632.912 394.729 633 394.942 633 395.163C633 395.385 632.912 395.598 632.755 395.755C632.598 395.912 632.386 396 632.164 396Z" fill="#3F3D56"/>
<path d="M413.102 4.57764e-05H5.85368C4.30172 0.00176849 2.81381 0.619287 1.71641 1.71713C0.619002 2.81497 0.00172966 4.30347 7.62939e-06 5.85605V307.022C0.00172966 308.575 0.619002 310.063 1.71641 311.161C2.81381 312.259 4.30172 312.876 5.85368 312.878H413.102C414.654 312.876 416.142 312.259 417.24 311.161C418.337 310.063 418.954 308.575 418.956 307.022V5.85605C418.954 4.30347 418.337 2.81497 417.24 1.71713C416.142 0.619287 414.654 0.00176849 413.102 4.57764e-05ZM417.283 307.022C417.283 308.131 416.842 309.195 416.058 309.979C415.274 310.764 414.211 311.205 413.102 311.205H5.85368C4.7449 311.205 3.68164 310.764 2.89761 309.979C2.11358 309.195 1.67293 308.131 1.67249 307.022V5.85605C1.67293 4.74683 2.11358 3.68315 2.89761 2.8988C3.68164 2.11446 4.7449 1.67363 5.85368 1.67319H413.102C414.211 1.67363 415.274 2.11446 416.058 2.8988C416.842 3.68315 417.283 4.74683 417.283 5.85605V307.022Z" fill="#3F3D56"/>
<path d="M418.12 23.4575H0.836239V25.1306H418.12V23.4575Z" fill="#3F3D56"/>
<path d="M15.0523 17.568C17.8234 17.568 20.0697 15.3207 20.0697 12.5486C20.0697 9.77642 17.8234 7.52914 15.0523 7.52914C12.2813 7.52914 10.0349 9.77642 10.0349 12.5486C10.0349 15.3207 12.2813 17.568 15.0523 17.568Z" fill="#3F3D56"/>
<path d="M29.4774 17.568C32.2485 17.568 34.4949 15.3207 34.4949 12.5486C34.4949 9.77642 32.2485 7.52914 29.4774 7.52914C26.7064 7.52914 24.46 9.77642 24.46 12.5486C24.46 15.3207 26.7064 17.568 29.4774 17.568Z" fill="#3F3D56"/>
<path d="M43.9026 17.568C46.6736 17.568 48.92 15.3207 48.92 12.5486C48.92 9.77642 46.6736 7.52914 43.9026 7.52914C41.1315 7.52914 38.8851 9.77642 38.8851 12.5486C38.8851 15.3207 41.1315 17.568 43.9026 17.568Z" fill="#3F3D56"/>
<path d="M252.396 260.429C252.174 260.429 251.962 260.341 251.805 260.184C251.648 260.027 251.56 259.814 251.56 259.592V225.293C251.56 225.071 251.648 224.858 251.805 224.701C251.962 224.545 252.174 224.456 252.396 224.456C252.618 224.456 252.831 224.545 252.987 224.701C253.144 224.858 253.232 225.071 253.232 225.293V259.592C253.232 259.814 253.144 260.027 252.987 260.184C252.831 260.341 252.618 260.429 252.396 260.429Z" fill="#3F3D56"/>
<path d="M251.25 211.908C251.102 211.908 250.957 211.869 250.83 211.794L203.318 184.1C203.127 183.988 202.988 183.805 202.932 183.591C202.875 183.376 202.906 183.148 203.018 182.957C203.13 182.765 203.312 182.626 203.527 182.569C203.741 182.512 203.969 182.543 204.16 182.654L251.672 210.348C251.83 210.441 251.954 210.583 252.024 210.753C252.094 210.924 252.106 211.112 252.058 211.29C252.01 211.467 251.905 211.624 251.759 211.736C251.612 211.847 251.434 211.908 251.25 211.908Z" fill="#3F3D56"/>
<path d="M156.229 211.908C156.046 211.908 155.867 211.847 155.721 211.736C155.575 211.624 155.469 211.467 155.421 211.29C155.373 211.112 155.385 210.924 155.455 210.753C155.525 210.583 155.649 210.441 155.808 210.348L203.319 182.654C203.51 182.544 203.738 182.514 203.952 182.571C204.165 182.627 204.348 182.767 204.459 182.958C204.57 183.149 204.602 183.377 204.546 183.591C204.49 183.805 204.351 183.988 204.16 184.1L156.65 211.794C156.522 211.869 156.377 211.908 156.229 211.908Z" fill="#3F3D56"/>
<path d="M300.588 253.736C300.44 253.737 300.295 253.697 300.168 253.623L252.657 225.929C252.465 225.817 252.326 225.634 252.27 225.419C252.214 225.205 252.245 224.977 252.356 224.786C252.468 224.594 252.651 224.455 252.865 224.398C253.079 224.341 253.307 224.372 253.499 224.483L301.01 252.177C301.169 252.269 301.292 252.412 301.362 252.582C301.432 252.752 301.444 252.941 301.396 253.118C301.348 253.296 301.243 253.453 301.097 253.564C300.951 253.676 300.772 253.737 300.588 253.736Z" fill="#3F3D56"/>
<path d="M205.568 253.736C205.384 253.737 205.205 253.676 205.059 253.564C204.913 253.453 204.808 253.296 204.759 253.118C204.711 252.941 204.723 252.752 204.793 252.582C204.863 252.412 204.987 252.269 205.146 252.177L252.657 224.483C252.848 224.372 253.076 224.342 253.29 224.399C253.503 224.456 253.686 224.595 253.797 224.787C253.909 224.978 253.94 225.205 253.884 225.42C253.828 225.634 253.689 225.817 253.499 225.929L205.988 253.623C205.86 253.697 205.715 253.736 205.568 253.736Z" fill="#3F3D56"/>
<path d="M203.894 169.243C203.673 169.243 203.46 169.155 203.304 168.998C203.147 168.842 203.059 168.63 203.058 168.408L202.981 137.968C202.98 137.858 203.002 137.749 203.043 137.647C203.085 137.546 203.147 137.453 203.224 137.375C203.302 137.298 203.394 137.236 203.495 137.193C203.596 137.151 203.705 137.129 203.815 137.129H203.817C204.038 137.129 204.251 137.217 204.407 137.373C204.564 137.53 204.653 137.742 204.653 137.963L204.73 168.404C204.731 168.514 204.709 168.623 204.668 168.724C204.626 168.826 204.564 168.918 204.487 168.996C204.41 169.074 204.318 169.136 204.216 169.178C204.115 169.22 204.006 169.242 203.896 169.243L203.894 169.243Z" fill="#3F3D56"/>
<path d="M214.71 185.067H192.924C191.926 185.066 190.97 184.669 190.264 183.963C189.559 183.258 189.162 182.301 189.161 181.303V170.108C189.162 169.11 189.559 168.153 190.264 167.447C190.97 166.742 191.926 166.345 192.924 166.344H214.71C215.707 166.345 216.664 166.742 217.369 167.447C218.075 168.153 218.472 169.11 218.473 170.108V181.303C218.472 182.301 218.075 183.258 217.369 183.963C216.664 184.669 215.707 185.066 214.71 185.067Z" fill="#CCCCCC"/>
<path d="M178.652 128.164H132.297C132.075 128.164 131.862 128.075 131.705 127.919C131.549 127.762 131.46 127.549 131.46 127.327C131.46 127.105 131.549 126.892 131.705 126.735C131.862 126.579 132.075 126.49 132.297 126.49H178.652C178.874 126.49 179.087 126.579 179.244 126.735C179.4 126.892 179.489 127.105 179.489 127.327C179.489 127.549 179.4 127.762 179.244 127.919C179.087 128.075 178.874 128.164 178.652 128.164Z" fill="#3F3D56"/>
<path d="M203.817 116.215C203.595 116.215 203.382 116.126 203.226 115.97C203.069 115.813 202.981 115.6 202.981 115.378V86.4219C202.981 86.2 203.069 85.9873 203.226 85.8304C203.382 85.6735 203.595 85.5853 203.817 85.5853C204.039 85.5853 204.251 85.6735 204.408 85.8304C204.565 85.9873 204.653 86.2 204.653 86.4219V115.378C204.653 115.6 204.565 115.813 204.408 115.97C204.251 116.126 204.039 116.215 203.817 116.215Z" fill="#3F3D56"/>
<path d="M114.261 128.164C114.111 128.164 113.964 128.123 113.836 128.047L68.8333 101.363C68.6431 101.25 68.5056 101.066 68.451 100.851C68.3964 100.636 68.4292 100.409 68.5421 100.218C68.655 100.028 68.8388 99.8896 69.0533 99.8344C69.2677 99.7793 69.4953 99.8114 69.6861 99.9239L114.688 126.607C114.846 126.701 114.969 126.844 115.037 127.014C115.106 127.184 115.117 127.372 115.068 127.548C115.02 127.725 114.914 127.881 114.769 127.992C114.623 128.104 114.444 128.164 114.261 128.164Z" fill="#3F3D56"/>
<path d="M69.2605 154.847C69.0772 154.847 68.8989 154.787 68.7531 154.676C68.6072 154.565 68.5019 154.409 68.4534 154.232C68.4048 154.055 68.4157 153.867 68.4844 153.697C68.553 153.527 68.6756 153.384 68.8333 153.291L113.836 126.607C114.026 126.494 114.254 126.461 114.469 126.516C114.684 126.571 114.868 126.71 114.981 126.9C115.095 127.091 115.127 127.319 115.072 127.534C115.017 127.749 114.879 127.934 114.688 128.047L69.6861 154.73C69.5573 154.807 69.4103 154.847 69.2605 154.847Z" fill="#3F3D56"/>
<path d="M128.952 141.657H117.762C116.764 141.656 115.807 141.259 115.102 140.554C114.396 139.848 114 138.891 113.999 137.893V116.099C114 115.101 114.396 114.144 115.102 113.438C115.807 112.732 116.764 112.335 117.762 112.334H128.952C129.949 112.335 130.906 112.732 131.611 113.438C132.317 114.144 132.714 115.101 132.715 116.099V137.893C132.714 138.891 132.317 139.848 131.611 140.554C130.906 141.259 129.949 141.656 128.952 141.657Z" fill="#CCCCCC"/>
<path d="M214.71 88.6731H192.924C191.926 88.6719 190.97 88.275 190.264 87.5692C189.559 86.8635 189.162 85.9066 189.161 84.9085V73.7136C189.162 72.7155 189.559 71.7587 190.264 71.0529C190.97 70.3472 191.926 69.9502 192.924 69.949H214.71C215.707 69.9502 216.664 70.3472 217.369 71.0529C218.075 71.7587 218.472 72.7155 218.473 73.7136V84.9085C218.472 85.9066 218.075 86.8635 217.369 87.5692C216.664 88.275 215.707 88.6719 214.71 88.6731Z" fill="#CCCCCC"/>
<path d="M66.2338 115.724H55.0437C54.046 115.722 53.0894 115.326 52.384 114.62C51.6785 113.914 51.2817 112.957 51.2806 111.959V90.1648C51.2817 89.1668 51.6785 88.2099 52.384 87.5041C53.0894 86.7984 54.046 86.4014 55.0437 86.4003H66.2338C67.2315 86.4014 68.188 86.7984 68.8934 87.5041C69.5989 88.2099 69.9957 89.1668 69.9968 90.1648V111.959C69.9957 112.957 69.5989 113.914 68.8934 114.62C68.188 115.326 67.2315 115.722 66.2338 115.724Z" fill="#CCCCCC"/>
<path d="M66.2338 168.428H55.0437C54.046 168.427 53.0894 168.03 52.384 167.324C51.6785 166.618 51.2817 165.661 51.2806 164.663V142.869C51.2817 141.871 51.6785 140.914 52.384 140.208C53.0894 139.502 54.046 139.105 55.0437 139.104H66.2338C67.2315 139.105 68.188 139.502 68.8934 140.208C69.5989 140.914 69.9957 141.871 69.9968 142.869V164.663C69.9957 165.661 69.5989 166.618 68.8934 167.324C68.188 168.03 67.2315 168.427 66.2338 168.428Z" fill="#CCCCCC"/>
<path d="M275.337 128.164H228.981C228.76 128.164 228.547 128.075 228.39 127.919C228.233 127.762 228.145 127.549 228.145 127.327C228.145 127.105 228.233 126.892 228.39 126.735C228.547 126.579 228.76 126.49 228.981 126.49H275.337C275.559 126.49 275.772 126.579 275.928 126.735C276.085 126.892 276.173 127.105 276.173 127.327C276.173 127.549 276.085 127.762 275.928 127.919C275.772 128.075 275.559 128.164 275.337 128.164Z" fill="#3F3D56"/>
<path d="M293.373 128.164C293.189 128.164 293.011 128.104 292.865 127.992C292.719 127.881 292.614 127.725 292.565 127.548C292.517 127.372 292.528 127.184 292.596 127.014C292.665 126.843 292.788 126.701 292.946 126.607L337.948 99.9239C338.042 99.8679 338.147 99.8311 338.255 99.8155C338.364 99.7999 338.475 99.8059 338.581 99.8332C338.688 99.8604 338.788 99.9083 338.876 99.9742C338.963 100.04 339.037 100.123 339.093 100.217C339.149 100.312 339.186 100.416 339.202 100.525C339.217 100.634 339.211 100.745 339.184 100.851C339.157 100.957 339.109 101.058 339.043 101.145C338.977 101.233 338.895 101.307 338.8 101.363L293.798 128.047C293.669 128.123 293.522 128.164 293.373 128.164Z" fill="#3F3D56"/>
<path d="M338.373 154.847C338.223 154.847 338.076 154.807 337.948 154.73L292.946 128.047C292.755 127.934 292.617 127.749 292.562 127.534C292.507 127.319 292.539 127.091 292.652 126.901C292.765 126.71 292.95 126.571 293.165 126.516C293.379 126.461 293.607 126.494 293.798 126.607L338.8 153.291C338.958 153.384 339.081 153.527 339.149 153.697C339.218 153.867 339.229 154.055 339.181 154.232C339.132 154.409 339.027 154.565 338.881 154.676C338.735 154.787 338.557 154.847 338.373 154.847Z" fill="#3F3D56"/>
<path d="M289.872 141.657H278.682C277.684 141.656 276.728 141.259 276.022 140.554C275.317 139.848 274.92 138.891 274.919 137.893V116.099C274.92 115.101 275.317 114.144 276.022 113.438C276.728 112.732 277.684 112.335 278.682 112.334H289.872C290.87 112.335 291.826 112.732 292.532 113.438C293.237 114.144 293.634 115.101 293.635 116.099V137.893C293.634 138.891 293.237 139.848 292.532 140.554C291.826 141.259 290.87 141.656 289.872 141.657Z" fill="#CCCCCC"/>
<path d="M352.59 115.724H341.4C340.402 115.722 339.446 115.326 338.74 114.62C338.035 113.914 337.638 112.957 337.637 111.959V90.1648C337.638 89.1668 338.035 88.2099 338.74 87.5041C339.446 86.7984 340.402 86.4014 341.4 86.4003H352.59C353.588 86.4014 354.544 86.7984 355.25 87.5041C355.955 88.2099 356.352 89.1668 356.353 90.1648V111.959C356.352 112.957 355.955 113.914 355.25 114.62C354.544 115.326 353.588 115.722 352.59 115.724Z" fill="#CCCCCC"/>
<path d="M352.59 168.428H341.4C340.402 168.427 339.446 168.03 338.74 167.324C338.035 166.618 337.638 165.661 337.637 164.663V142.869C337.638 141.871 338.035 140.914 338.74 140.208C339.446 139.502 340.402 139.105 341.4 139.104H352.59C353.588 139.105 354.544 139.502 355.25 140.208C355.955 140.914 356.352 141.871 356.353 142.869V164.663C356.352 165.661 355.955 166.618 355.25 167.324C354.544 168.03 353.588 168.427 352.59 168.428Z" fill="#CCCCCC"/>
<path d="M166.208 227.732H144.422C143.424 227.731 142.468 227.334 141.762 226.629C141.057 225.923 140.66 224.966 140.659 223.968V212.773C140.66 211.775 141.057 210.818 141.762 210.113C142.468 209.407 143.424 209.01 144.422 209.009H166.208C167.206 209.01 168.162 209.407 168.868 210.113C169.573 210.818 169.97 211.775 169.971 212.773V223.968C169.97 224.966 169.573 225.923 168.868 226.629C168.162 227.334 167.206 227.731 166.208 227.732Z" fill="#CCCCCC"/>
<path d="M263.057 227.732H241.271C240.274 227.731 239.317 227.334 238.612 226.629C237.906 225.923 237.509 224.966 237.508 223.968V212.773C237.509 211.775 237.906 210.818 238.612 210.113C239.317 209.407 240.274 209.01 241.271 209.009H263.057C264.055 209.01 265.011 209.407 265.717 210.113C266.422 210.818 266.819 211.775 266.82 212.773V223.968C266.819 224.966 266.422 225.923 265.717 226.629C265.011 227.334 264.055 227.731 263.057 227.732Z" fill="#CCCCCC"/>
<path d="M218.736 268.724H196.951C195.953 268.723 194.996 268.326 194.291 267.621C193.585 266.915 193.189 265.958 193.188 264.96V253.765C193.189 252.767 193.585 251.81 194.291 251.105C194.996 250.399 195.953 250.002 196.951 250.001H218.736C219.734 250.002 220.69 250.399 221.396 251.105C222.101 251.81 222.498 252.767 222.499 253.765V264.96C222.498 265.958 222.101 266.915 221.396 267.621C220.69 268.326 219.734 268.723 218.736 268.724Z" fill="#CCCCCC"/>
<path d="M311.559 268.724H289.773C288.775 268.723 287.819 268.326 287.113 267.621C286.408 266.915 286.011 265.958 286.01 264.96V253.765C286.011 252.767 286.408 251.81 287.113 251.105C287.819 250.399 288.775 250.002 289.773 250.001H311.559C312.557 250.002 313.513 250.399 314.218 251.105C314.924 251.81 315.321 252.767 315.322 253.765V264.96C315.321 265.958 314.924 266.915 314.218 267.621C313.513 268.326 312.557 268.723 311.559 268.724Z" fill="#CCCCCC"/>
<path d="M263.057 268.724H241.271C240.274 268.723 239.317 268.326 238.612 267.621C237.906 266.915 237.509 265.958 237.508 264.96V253.765C237.509 252.767 237.906 251.81 238.612 251.105C239.317 250.399 240.274 250.002 241.271 250.001H263.057C264.055 250.002 265.011 250.399 265.717 251.105C266.422 251.81 266.819 252.767 266.82 253.765V264.96C266.819 265.958 266.422 266.915 265.717 267.621C265.011 268.326 264.055 268.723 263.057 268.724Z" fill="#CCCCCC"/>
<path d="M230.3 141.88H177.334C176.336 141.879 175.38 141.482 174.674 140.776C173.969 140.07 173.572 139.113 173.571 138.115V116.539C173.572 115.54 173.969 114.584 174.674 113.878C175.38 113.172 176.336 112.775 177.334 112.774H230.3C231.298 112.775 232.254 113.172 232.96 113.878C233.665 114.584 234.062 115.54 234.063 116.539V138.115C234.062 139.113 233.665 140.07 232.96 140.776C232.254 141.482 231.298 141.879 230.3 141.88Z" fill="#BA76FF"/>
</g>
<defs>
<clipPath id="clip0_4_70">
<rect width="633" height="396" fill="white"/>
</clipPath>
</defs>
</svg>
